<svg width="80" height="80" viewBox="0 0 80 80" fill="none" xmlns="http://www.w3.org/2000/svg">
<path opacity="0.7" d="M79.2024 39.7868C79.2024 61.5252 61.5799 79.1478 39.8415 79.1478C18.103 79.1478 0.480469 61.5252 0.480469 39.7868C0.480469 18.0483 18.103 0.425781 39.8415 0.425781C61.5799 0.425781 79.2024 18.0483 79.2024 39.7868ZM8.35267 39.7868C8.35267 57.1775 22.4507 71.2756 39.8415 71.2756C57.2322 71.2756 71.3302 57.1775 71.3302 39.7868C71.3302 22.396 57.2322 8.29798 39.8415 8.29798C22.4507 8.29798 8.35267 22.396 8.35267 39.7868Z" fill="#E4E4E4"/>
<path d="M39.8415 4.36188C39.8415 2.18803 41.6081 0.405397 43.771 0.622423C47.7974 1.02641 51.7454 2.04972 55.4736 3.66304C60.4085 5.79856 64.8535 8.92255 68.5344 12.8423C72.2153 16.7621 75.054 21.3945 76.8755 26.4537C78.2515 30.2758 79.0249 34.2803 79.1753 38.3241C79.256 40.4964 77.366 42.1476 75.1964 42.0111C73.0269 41.8746 71.4045 40 71.2694 37.8304C71.0847 34.863 70.4802 31.9301 69.4687 29.1203C68.0115 25.0729 65.7405 21.367 62.7958 18.2312C59.8511 15.0954 56.2951 12.5962 52.3472 10.8878C49.6065 9.70178 46.7172 8.91434 43.7673 8.54367C41.6105 8.27264 39.8415 6.53573 39.8415 4.36188Z" fill="#FF647C"/>
<path d="M27.0246 42.8071L26.6346 42.4846L28.5021 41.1496C29.1021 40.7396 29.5921 40.3321 29.9721 39.9271C30.3571 39.5171 30.6396 39.0821 30.8196 38.6221C30.9996 38.1621 31.0896 37.6496 31.0896 37.0846C31.0896 36.5096 31.0296 36.0421 30.9096 35.6821C30.7946 35.3171 30.6271 35.0496 30.4071 34.8796C30.1921 34.7046 29.9371 34.6171 29.6421 34.6171C29.1771 34.6171 28.8371 34.7621 28.6221 35.0521C28.4071 35.3371 28.2996 35.7021 28.2996 36.1471V36.9796C28.2996 37.3196 28.1996 37.5896 27.9996 37.7896C27.7996 37.9896 27.5271 38.0896 27.1821 38.0896C26.8521 38.0896 26.5871 37.9821 26.3871 37.7671C26.1921 37.5471 26.0946 37.2421 26.0946 36.8521C26.0946 36.3621 26.2321 35.9046 26.5071 35.4796C26.7871 35.0546 27.2071 34.7121 27.7671 34.4521C28.3271 34.1871 29.0296 34.0546 29.8746 34.0546C30.6946 34.0546 31.3721 34.1821 31.9071 34.4371C32.4471 34.6921 32.8496 35.0421 33.1146 35.4871C33.3796 35.9271 33.5121 36.4321 33.5121 37.0021C33.5121 37.4921 33.3921 37.9546 33.1521 38.3896C32.9121 38.8246 32.5171 39.2646 31.9671 39.7096C31.4221 40.1496 30.6946 40.6321 29.7846 41.1571L27.0246 42.8071ZM25.8621 43.8346C25.8621 43.3196 26.0571 42.9021 26.4471 42.5821C26.8371 42.2571 27.3971 42.0946 28.1271 42.0946C28.4771 42.0946 28.8146 42.1371 29.1396 42.2221C29.4696 42.3021 29.7921 42.3971 30.1071 42.5071C30.4271 42.6121 30.7471 42.7071 31.0671 42.7921C31.3871 42.8721 31.7146 42.9121 32.0496 42.9121C32.4096 42.9121 32.6896 42.8396 32.8896 42.6946C33.0946 42.5446 33.2696 42.3046 33.4146 41.9746C33.4696 41.8796 33.5296 41.8121 33.5946 41.7721C33.6646 41.7321 33.7371 41.7171 33.8121 41.7271C33.9071 41.7371 33.9796 41.7821 34.0296 41.8621C34.0796 41.9371 34.0971 42.0596 34.0821 42.2296C34.0121 42.9046 33.8771 43.4471 33.6771 43.8571C33.4771 44.2671 33.2171 44.5646 32.8971 44.7496C32.5771 44.9346 32.2021 45.0271 31.7721 45.0271C31.4221 45.0271 31.1096 44.9771 30.8346 44.8771C30.5646 44.7771 30.3171 44.6171 30.0921 44.3971C29.8721 44.1771 29.6571 43.8846 29.4471 43.5196C29.2671 43.2696 29.1146 43.1021 28.9896 43.0171C28.8696 42.9271 28.7396 42.8821 28.5996 42.8821C28.4346 42.8821 28.3046 42.9521 28.2096 43.0921C28.1196 43.2271 28.0621 43.4546 28.0371 43.7746C28.0121 44.0796 27.9496 44.3246 27.8496 44.5096C27.7496 44.6896 27.6146 44.8196 27.4446 44.8996C27.2796 44.9796 27.0821 45.0196 26.8521 45.0196C26.5721 45.0196 26.3371 44.9146 26.1471 44.7046C25.9571 44.4896 25.8621 44.1996 25.8621 43.8346ZM39.7924 34.0546C40.4574 34.0546 41.0249 34.1596 41.4949 34.3696C41.9649 34.5746 42.3224 34.8471 42.5674 35.1871C42.8124 35.5221 42.9349 35.8871 42.9349 36.2821C42.9349 36.6621 42.8299 36.9571 42.6199 37.1671C42.4149 37.3771 42.1324 37.4821 41.7724 37.4821C41.4124 37.4821 41.1324 37.3871 40.9324 37.1971C40.7374 37.0021 40.6399 36.7271 40.6399 36.3721V35.7796C40.6399 35.4346 40.5499 35.1696 40.3699 34.9846C40.1949 34.7946 39.9174 34.6996 39.5374 34.6996C39.2474 34.6996 38.9674 34.7921 38.6974 34.9771C38.4324 35.1571 38.1999 35.4546 37.9999 35.8696C37.7999 36.2796 37.6424 36.8196 37.5274 37.4896C37.4124 38.1596 37.3549 38.9821 37.3549 39.9571C37.3549 41.0821 37.4399 41.9696 37.6099 42.6196C37.7849 43.2646 38.0199 43.7221 38.3149 43.9921C38.6149 44.2571 38.9499 44.3896 39.3199 44.3896C39.8349 44.3896 40.2474 44.1746 40.5574 43.7446C40.8674 43.3146 41.0224 42.6646 41.0224 41.7946C41.0224 40.9696 40.8499 40.3446 40.5049 39.9196C40.1649 39.4946 39.7174 39.2821 39.1624 39.2821C38.8274 39.2821 38.5149 39.3621 38.2249 39.5221C37.9349 39.6821 37.6949 39.9021 37.5049 40.1821C37.3199 40.4621 37.2099 40.7821 37.1749 41.1421L36.7549 40.9546C36.7749 40.4946 36.9299 40.0746 37.2199 39.6946C37.5149 39.3096 37.9049 39.0021 38.3899 38.7721C38.8749 38.5421 39.4124 38.4271 40.0024 38.4271C40.6674 38.4271 41.2424 38.5496 41.7274 38.7946C42.2124 39.0396 42.5874 39.3921 42.8524 39.8521C43.1174 40.3121 43.2499 40.8671 43.2499 41.5171C43.2499 42.2171 43.0874 42.8296 42.7624 43.3546C42.4374 43.8796 41.9824 44.2896 41.3974 44.5846C40.8124 44.8796 40.1224 45.0271 39.3274 45.0271C38.4224 45.0271 37.6499 44.8221 37.0099 44.4121C36.3749 44.0021 35.8899 43.4146 35.5549 42.6496C35.2199 41.8796 35.0499 40.9596 35.0449 39.8896C35.0449 38.6196 35.2399 37.5521 35.6299 36.6871C36.0199 35.8221 36.5699 35.1671 37.2799 34.7221C37.9899 34.2771 38.8274 34.0546 39.7924 34.0546ZM46.8674 34.0771C47.6474 34.0771 48.2674 34.3221 48.7274 34.8121C49.1924 35.3021 49.4249 35.9671 49.4249 36.8071C49.4249 37.4171 49.3149 37.9396 49.0949 38.3746C48.8749 38.8046 48.5699 39.1346 48.1799 39.3646C47.7899 39.5896 47.3374 39.7021 46.8224 39.7021C45.9924 39.7021 45.3499 39.4546 44.8949 38.9596C44.4399 38.4646 44.2124 37.7721 44.2124 36.8821C44.2124 36.0321 44.4474 35.3521 44.9174 34.8421C45.3924 34.3321 46.0424 34.0771 46.8674 34.0771ZM47.8199 36.9121C47.8199 36.0771 47.7324 35.4796 47.5574 35.1196C47.3824 34.7546 47.1374 34.5721 46.8224 34.5721C46.4924 34.5721 46.2424 34.7546 46.0724 35.1196C45.9074 35.4796 45.8249 36.0396 45.8249 36.7996C45.8249 37.6696 45.9124 38.2871 46.0874 38.6521C46.2624 39.0171 46.5124 39.1996 46.8374 39.1996C47.0424 39.1996 47.2174 39.1271 47.3624 38.9821C47.5074 38.8371 47.6199 38.5996 47.6999 38.2696C47.7799 37.9346 47.8199 37.4821 47.8199 36.9121ZM50.3399 38.9221C50.2599 39.0221 50.1874 39.0846 50.1224 39.1096C50.0574 39.1346 49.9774 39.1246 49.8824 39.0796C49.8024 39.0346 49.7599 38.9771 49.7549 38.9071C49.7499 38.8321 49.7724 38.7396 49.8224 38.6296C49.9024 38.4796 49.9999 38.2896 50.1149 38.0596C50.2299 37.8296 50.3549 37.5821 50.4899 37.3171C50.6249 37.0471 50.7624 36.7696 50.9024 36.4846C51.0474 36.1996 51.1874 35.9271 51.3224 35.6671C51.4574 35.4021 51.5824 35.1621 51.6974 34.9471C51.8174 34.7321 51.9149 34.5596 51.9899 34.4296C52.0999 34.2546 52.2349 34.1421 52.3949 34.0921C52.5549 34.0421 52.7274 34.0671 52.9124 34.1671C53.0874 34.2671 53.1899 34.3946 53.2199 34.5496C53.2499 34.6996 53.2099 34.8646 53.0999 35.0446C53.0299 35.1596 52.9274 35.3146 52.7924 35.5096C52.6574 35.7046 52.5049 35.9246 52.3349 36.1696C52.1649 36.4146 51.9849 36.6671 51.7949 36.9271C51.6049 37.1871 51.4199 37.4446 51.2399 37.6996C51.0599 37.9496 50.8899 38.1796 50.7299 38.3896C50.5749 38.5996 50.4449 38.7771 50.3399 38.9221ZM48.9074 40.1446C48.9874 40.0446 49.0599 39.9821 49.1249 39.9571C49.1949 39.9271 49.2749 39.9346 49.3649 39.9796C49.4499 40.0296 49.4924 40.0921 49.4924 40.1671C49.4974 40.2421 49.4724 40.3321 49.4174 40.4371C49.3424 40.5871 49.2474 40.7771 49.1324 41.0071C49.0174 41.2371 48.8924 41.4871 48.7574 41.7571C48.6224 42.0271 48.4824 42.3046 48.3374 42.5896C48.1974 42.8746 48.0599 43.1496 47.9249 43.4146C47.7899 43.6796 47.6649 43.9196 47.5499 44.1346C47.4349 44.3496 47.3374 44.5196 47.2574 44.6446C47.1474 44.8196 47.0099 44.9296 46.8449 44.9746C46.6849 45.0246 46.5149 45.0021 46.3349 44.9071C46.1599 44.8121 46.0549 44.6871 46.0199 44.5321C45.9899 44.3771 46.0324 44.2121 46.1474 44.0371C46.2224 43.9171 46.3249 43.7596 46.4549 43.5646C46.5899 43.3696 46.7424 43.1496 46.9124 42.9046C47.0874 42.6546 47.2674 42.3996 47.4524 42.1396C47.6424 41.8796 47.8274 41.6246 48.0074 41.3746C48.1924 41.1196 48.3624 40.8871 48.5174 40.6771C48.6724 40.4621 48.8024 40.2846 48.9074 40.1446ZM52.4474 39.3871C53.2274 39.3871 53.8474 39.6321 54.3074 40.1221C54.7724 40.6121 55.0049 41.2771 55.0049 42.1171C55.0049 42.7271 54.8949 43.2496 54.6749 43.6846C54.4549 44.1146 54.1499 44.4446 53.7599 44.6746C53.3699 44.8996 52.9174 45.0121 52.4024 45.0121C51.5724 45.0121 50.9299 44.7646 50.4749 44.2696C50.0199 43.7746 49.7924 43.0821 49.7924 42.1921C49.7924 41.3421 50.0274 40.6621 50.4974 40.1521C50.9724 39.6421 51.6224 39.3871 52.4474 39.3871ZM53.3999 42.2221C53.3999 41.3871 53.3124 40.7896 53.1374 40.4296C52.9624 40.0646 52.7174 39.8821 52.4024 39.8821C52.0724 39.8821 51.8224 40.0646 51.6524 40.4296C51.4874 40.7896 51.4049 41.3496 51.4049 42.1096C51.4049 42.9796 51.4924 43.5971 51.6674 43.9621C51.8424 44.3271 52.0924 44.5096 52.4174 44.5096C52.6224 44.5096 52.7974 44.4371 52.9424 44.2921C53.0874 44.1471 53.1999 43.9096 53.2799 43.5796C53.3599 43.2446 53.3999 42.7921 53.3999 42.2221Z" fill="#151522"/>
</svg>
