<svg width="28" height="29" viewBox="0 0 28 29" fill="none" xmlns="http://www.w3.org/2000/svg">
<path d="M14 5.28711C12.1435 5.28711 10.363 6.02461 9.05025 7.33736C7.7375 8.65012 7 10.4306 7 12.2871V17.2871C7 18.0828 6.68393 18.8458 6.12132 19.4084C5.55871 19.971 4.79565 20.2871 4 20.2871H24C23.2044 20.2871 22.4413 19.971 21.8787 19.4084C21.3161 18.8458 21 18.0828 21 17.2871V12.2871C21 10.4306 20.2625 8.65012 18.9497 7.33736C17.637 6.02461 15.8565 5.28711 14 5.28711ZM14 5.28711V2.28711M15.73 24.2871C15.5542 24.5902 15.3018 24.8418 14.9982 25.0166C14.6946 25.1915 14.3504 25.2836 14 25.2836C13.6496 25.2836 13.3054 25.1915 13.0018 25.0166C12.6982 24.8418 12.4458 24.5902 12.27 24.2871" stroke="#FF647C" stroke-linecap="round" stroke-linejoin="round"/>
</svg>
