<svg width="28" height="29" viewBox="0 0 28 29" fill="none" xmlns="http://www.w3.org/2000/svg">
<path d="M18 23.1426V21.1426C18 20.0817 17.5786 19.0643 16.8284 18.3142C16.0783 17.564 15.0609 17.1426 14 17.1426H7C5.93913 17.1426 4.92172 17.564 4.17157 18.3142C3.42143 19.0643 3 20.0817 3 21.1426V23.1426M19 13.1426L21 15.1426L25 11.1426M14.5 9.14258C14.5 11.3517 12.7091 13.1426 10.5 13.1426C8.29086 13.1426 6.5 11.3517 6.5 9.14258C6.5 6.93344 8.29086 5.14258 10.5 5.14258C12.7091 5.14258 14.5 6.93344 14.5 9.14258Z" stroke="#999999" stroke-linecap="round" stroke-linejoin="round"/>
</svg>
